<svg width="13" height="16" xmlns="http://www.w3.org/2000/svg" xmlns:xlink="http://www.w3.org/1999/xlink"><use xlink:href="#path0_fill" fill="#828282"/><defs><path id="path0_fill" d="M11.375 5.6h-.8125V4c0-2.2-1.82812-4-4.0625-4S2.4375 1.8 2.4375 4v1.6H1.625C.73125 5.6 0 6.32 0 7.2v7.2c0 .88.73125 1.6 1.625 1.6h9.75c.8938 0 1.625-.72 1.625-1.6V7.2c0-.88-.7312-1.6-1.625-1.6zm-3.88538 8.2412H5.64128l.27173-1.9895c-.37645-.2041-.63176-.5985-.63176-1.0517 0-.6628.54564-1.2 1.21875-1.2s1.21875.5372 1.21875 1.2c0 .4028-.20168.7591-.51097.9767l.28184 2.0645zM8.9375 5.6h-4.875V4c0-1.32 1.09687-2.4 2.4375-2.4 1.34062 0 2.4375 1.08 2.4375 2.4v1.6z"/></defs></svg>