<svg width="48" height="58" viewBox="0 0 48 58" fill="none" xmlns="http://www.w3.org/2000/svg">
<path d="M22.8858 36.2358H25.3743H39.6267C51.3906 15.3831 47.3185 0 47.3185 0H25.4874H22.9989H0.715283C0.715283 0 -3.46996 15.3831 8.40708 36.2358H22.8858Z" transform="translate(0 16.4086)" fill="#1B0E65"/>
<path d="M24.659 11.9646H43.436C43.436 11.9646 40.9475 8.09037 32.0114 4.8998C28.9573 3.76031 27.4869 2.73477 24.3196 0.683694C23.641 0.113949 22.6229 0 21.8311 0C21.3787 0 20.9262 0 20.4737 0.227898C20.3606 0.227898 20.2475 0.227898 20.2475 0.227898C20.2475 0.227898 20.2475 0.227898 20.1344 0.227898C19.9082 0.341847 19.6819 0.455796 19.4557 0.683694C16.0623 2.73477 14.7049 3.87426 11.5377 4.8998C2.48852 8.09037 0 11.9646 0 11.9646H19.0033H24.659Z" transform="translate(2.29889)" fill="#1B0E65"/>
<path d="M32.577 0H14.2524H12.5557H1.69672C0.791802 0 0 0.797642 0 1.70923C0 2.62083 0.791802 3.41847 1.69672 3.41847H12.5557H14.2524H32.577C33.4819 3.41847 34.2737 2.62083 34.2737 1.70923C34.2737 0.797642 33.4819 0 32.577 0Z" transform="translate(6.93658 54.5815)" fill="#1B0E65"/>
</svg>
