<svg width="64" height="66" viewBox="0 0 64 66" fill="none" xmlns="http://www.w3.org/2000/svg">
<path d="M1.65926 0H0.474076C0.11852 0 0 0.235714 0 0.471428V3.41786C0 3.77143 0.237039 3.88929 0.474076 3.88929H1.65926C2.84445 3.77143 3.55556 3.18214 3.67408 1.88571C3.55556 0.707143 2.84445 0.117857 1.65926 0Z" transform="translate(41.6 26.4)" fill="#1B0E65"/>
<path d="M1.65926 0H0.474074C0.118518 0 0 0.235714 0 0.471428V3.41786C0 3.77143 0.237037 3.88929 0.474074 3.88929H1.65926C2.84444 3.77143 3.55555 3.18214 3.67407 1.88571C3.55555 0.707143 2.96296 0.117857 1.65926 0Z" transform="translate(19.7926 26.4)" fill="#1B0E65"/>
<path d="M59.0222 62.2286V26.9893C59.0222 12.1393 46.9333 0 31.8815 0C16.9481 0 4.74074 12.1393 4.74074 26.9893V62.2286H0V66H64V62.2286H59.0222ZM26.6667 35.1214V39.4821C26.5481 40.0714 26.3111 40.425 25.7185 40.425H24.5333C23.9407 40.425 23.5852 40.0714 23.5852 39.4821V35.3571C23.4667 34.1786 22.7556 33.5893 21.5704 33.4714H21.0963H20.3852C20.0296 33.4714 19.9111 33.7071 19.9111 33.9429V39.4821C19.7926 40.0714 19.5556 40.425 18.963 40.425H17.7778C17.1852 40.425 16.8296 40.0714 16.8296 39.4821V33.3536V30.1714V24.0429C16.9481 23.4536 17.1852 23.2179 17.7778 23.1H17.8963H19.2H21.9259C25.1259 23.4536 26.7852 25.1036 27.1407 28.1679C27.1407 29.5821 26.6667 30.7607 25.7185 31.7036C26.3111 32.7643 26.6667 33.825 26.6667 35.1214ZM34.1333 37.8321V39.4821V39.6C34.1333 39.7179 34.0148 39.8357 34.0148 39.9536C33.8963 40.0714 33.7778 40.1893 33.6593 40.3071C33.5407 40.425 33.3037 40.425 33.1852 40.425H32C31.4074 40.425 31.0519 40.0714 31.0519 39.6V24.1607C31.0519 23.5714 31.4074 23.2179 32 23.2179H33.1852C33.5407 23.2179 33.7778 23.4536 34.0148 23.6893C34.1333 23.8071 34.1333 24.0429 34.1333 24.1607V37.8321ZM43.3778 33.3536H42.0741C41.7185 33.3536 41.6 33.4714 41.6 33.825V39.3643C41.4815 39.9536 41.2444 40.3071 40.6519 40.3071H39.4667C38.8741 40.3071 38.5185 39.9536 38.5185 39.3643V33.2357V30.0536V23.925C38.5185 23.4536 38.8741 23.1 39.3481 22.9821H39.4667H40.7704H43.4963C46.6963 23.3357 48.3556 24.9857 48.7111 28.05C48.237 31.4679 46.5778 33.1179 43.3778 33.3536Z" fill="#1B0E65"/>
</svg>
